<svg xmlns="http://www.w3.org/2000/svg" viewBox="0 0 24 24">
  <defs>
    <linearGradient id="carGradient" x1="0%" y1="0%" x2="100%" y2="100%">
      <stop offset="0%" style="stop-color:#3B82F6;stop-opacity:1" />
      <stop offset="100%" style="stop-color:#1D4ED8;stop-opacity:1" />
    </linearGradient>
  </defs>
  <path d="M7 17h10v-5H7v5z" fill="url(#carGradient)"/>
  <path d="M17 17h1a2 2 0 0 0 2-2v-3h1V9h-1V7a2 2 0 0 0-2-2H7a2 2 0 0 0-2 2v2H4v3h1v3a2 2 0 0 0 2 2h1" fill="url(#carGradient)"/>
  <circle cx="7.5" cy="14.5" r="1.5" fill="#1F2937"/>
  <circle cx="16.5" cy="14.5" r="1.5" fill="#1F2937"/>
  <path d="M9 11h6" stroke="#FFFFFF" stroke-width="1" stroke-linecap="round"/>
</svg>
